<?xml version="1.0" encoding="UTF-8"?>
<svg width="1800" height="600" viewBox="0 0 1800 600" xmlns="http://www.w3.org/2000/svg">
  <defs>
    <style>
      @font-face {
        font-family: 'PP Supply Mono';
        src: url('PPSupplyMono-Regular.otf') format('opentype');
      }
      .main-text { 
        font-family: 'PP Supply Mono', 'Courier New', monospace; 
        font-size: 110px; 
        fill: #FF6611; 
      }
      .label { 
        font-family: 'PP Supply Mono', 'Courier New', monospace; 
        font-size: 14px; 
        fill: #994400; 
      }
      .value { 
        font-family: 'PP Supply Mono', 'Courier New', monospace; 
        font-size: 14px; 
        fill: #666666; 
      }
      .value-active { 
        font-family: 'PP Supply Mono', 'Courier New', monospace; 
        font-size: 14px; 
        fill: #FF6611; 
      }
      .japanese { 
        font-family: 'Noto Sans CJK JP', 'Noto Sans JP', sans-serif; 
        font-size: 16px; 
        fill: #333333; 
      }
      .japanese-sub { 
        font-family: 'PP Supply Mono', 'Courier New', monospace; 
        font-size: 14px; 
        fill: #333333; 
      }
    </style>
  </defs>
  
  <text x="350" y="335" class="main-text">PRAGMATIKS</text>
  
  <line x1="230" y1="165" x2="230" y2="215" stroke="#FF6611" stroke-width="3"/>
  <line x1="230" y1="165" x2="280" y2="165" stroke="#FF6611" stroke-width="3"/>
  
  <line x1="1570" y1="165" x2="1570" y2="215" stroke="#FF6611" stroke-width="3"/>
  <line x1="1570" y1="165" x2="1520" y2="165" stroke="#FF6611" stroke-width="3"/>
  
  <line x1="230" y1="435" x2="230" y2="385" stroke="#FF6611" stroke-width="3"/>
  <line x1="230" y1="435" x2="280" y2="435" stroke="#FF6611" stroke-width="3"/>
  
  <line x1="1570" y1="435" x2="1570" y2="385" stroke="#FF6611" stroke-width="3"/>
  <line x1="1570" y1="435" x2="1520" y2="435" stroke="#FF6611" stroke-width="3"/>
  
  <line x1="50" y1="135" x2="200" y2="135" stroke="#994400" stroke-width="1"/>
  <line x1="1600" y1="135" x2="1750" y2="135" stroke="#994400" stroke-width="1"/>
  <line x1="50" y1="465" x2="200" y2="465" stroke="#994400" stroke-width="1"/>
  <line x1="1600" y1="465" x2="1750" y2="465" stroke="#994400" stroke-width="1"/>
  
  <text x="230" y="130" class="label">SYS.ID</text>
  <text x="290" y="130" class="value">PRAGMA-OS/CORE</text>
  
  <text x="1440" y="130" class="label">STATUS</text>
  <text x="1500" y="130" class="value-active">ACTIVE</text>
  
  <text x="230" y="470" class="label">VER</text>
  <text x="270" y="470" class="value">0.1.0</text>
  
  <text x="1385" y="470" class="label">TYPE</text>
  <text x="1430" y="470" class="value">PLATFORM-ENGINE</text>
  
  <text x="80" y="180" class="japanese">基盤制御</text>
  <text x="80" y="205" class="japanese-sub">REACTIVE</text>
  
  <text x="1670" y="180" class="japanese">自動更新</text>
  <text x="1670" y="205" class="japanese-sub">SYNC</text>
  
</svg>